Coordinates
version=1
nRows=33
nColumns=34
inDegrees=no

Units are S.I. units (second, meters, Newtons, ...)
If the header above contains a line with 'inDegrees', this indicates whether rotational values are in degrees (yes) or radians (no).

endheader
time	pelvis_tilt	pelvis_list	pelvis_rotation	pelvis_tx	pelvis_ty	pelvis_tz	hip_flexion_r	hip_adduction_r	hip_rotation_r	knee_angle_r	ankle_angle_r	subtalar_angle_r	mtp_angle_r	hip_flexion_l	hip_adduction_l	hip_rotation_l	knee_angle_l	ankle_angle_l	subtalar_angle_l	mtp_angle_l	lumbar_extension	lumbar_bending	lumbar_rotation	arm_flex_r	arm_add_r	arm_rot_r	elbow_flex_r	pro_sup_r	arm_flex_l	arm_add_l	arm_rot_l	elbow_flex_l	pro_sup_l
0	0.202205	0.0158292	0.0316818	-0.0648332	1.12526	-0.202665	0.23486	0.0089035	-0.188484	0.311292	-0.0879331	-0.0648835	-0.0510076	-0.46483	-0.0075909	-0.208821	0.465362	-0.0919801	-0.230098	-0.124934	-0.420982	0.090697	-0.0912279	-0.165404	-0.128553	-0.244897	0.66455	2.06392	-0.113102	-0.143468	-0.1242	0.779222	2.09749
0.01	0.196983	0.00735688	0.0360428	-0.0509033	1.12712	-0.201389	0.235205	0.0190098	-0.184485	0.322269	-0.0830096	-0.0814877	-0.0511014	-0.42605	-0.0276716	-0.202367	0.536267	-0.158702	-0.271129	-0.124903	-0.414462	0.101313	-0.0895473	-0.16683	-0.128468	-0.245724	0.667404	2.06318	-0.117609	-0.142108	-0.123342	0.777021	2.10079
0.02	0.192504	-0.000412355	0.040902	-0.0372918	1.12892	-0.20022	0.233842	0.0281914	-0.182445	0.331418	-0.077507	-0.0946163	-0.0511953	-0.387711	-0.0461982	-0.194255	0.603701	-0.221127	-0.309592	-0.124873	-0.408842	0.11132	-0.0877958	-0.167974	-0.128763	-0.245898	0.670467	2.063	-0.121349	-0.141137	-0.121627	0.775263	2.10426
0.03	0.188761	-0.0074845	0.046247	-0.0239896	1.13068	-0.199152	0.230771	0.0364431	-0.182333	0.338744	-0.0714284	-0.104294	-0.0512891	-0.34981	-0.0631573	-0.184526	0.66768	-0.279043	-0.34545	-0.124842	-0.404128	0.120699	-0.0859624	-0.168832	-0.129436	-0.245432	0.673734	2.06339	-0.124322	-0.140549	-0.119071	0.773953	2.10788
0.04	0.185754	-0.0138494	0.0520337	-0.0109923	1.13244	-0.198174	0.225998	0.0437471	-0.184043	0.344272	-0.0647812	-0.110601	-0.051383	-0.312359	-0.0784982	-0.173302	0.728219	-0.331841	-0.378607	-0.124812	-0.40034	0.129393	-0.0840143	-0.169387	-0.130477	-0.244364	0.677196	2.06439	-0.126535	-0.140329	-0.115736	0.773112	2.11164
0.05	0.183486	-0.0194609	0.0581666	0.00170633	1.13421	-0.197276	0.21954	0.0500681	-0.187371	0.348066	-0.0575813	-0.113705	-0.0514768	-0.275413	-0.0921175	-0.160802	0.785296	-0.378479	-0.408914	-0.124781	-0.397508	0.137296	-0.0818935	-0.169611	-0.131866	-0.242777	0.68083	2.06603	-0.128015	-0.140441	-0.111743	0.772778	2.11549
0.06	0.181957	-0.0242321	0.0644942	0.0141151	1.136	-0.196442	0.211441	0.0553614	-0.192003	0.350241	-0.0498643	-0.113872	-0.0515707	-0.239085	-0.103869	-0.147347	0.83883	-0.417634	-0.436191	-0.124751	-0.395667	0.144261	-0.0795244	-0.169461	-0.133569	-0.240799	0.6846	2.06832	-0.128817	-0.140832	-0.107284	0.773017	2.11934
0.07	0.181152	-0.0280537	0.0708173	0.0262444	1.13784	-0.195657	0.201786	0.0595888	-0.19754	0.350952	-0.0416969	-0.111476	-0.0516645	-0.203524	-0.113598	-0.133339	0.888672	-0.447989	-0.460279	-0.12472	-0.394835	0.150124	-0.076831	-0.168883	-0.135539	-0.238592	0.688457	2.07123	-0.129037	-0.141431	-0.102611	0.773915	2.1231
0.08	0.181028	-0.0308293	0.0769183	0.038107	1.13974	-0.194903	0.190708	0.0627356	-0.20354	0.350377	-0.0331822	-0.106969	-0.0517584	-0.168897	-0.121175	-0.119216	0.934614	-0.468596	-0.48108	-0.12469	-0.394991	0.154736	-0.0737595	-0.167816	-0.137721	-0.236341	0.692337	2.07464	-0.128811	-0.142161	-0.0980068	0.77558	2.12667
0.09	0.181496	-0.0325032	0.0825926	0.0497206	1.1417	-0.194167	0.178381	0.0648288	-0.209573	0.348684	-0.0244568	-0.100849	-0.0518523	-0.13535	-0.126536	-0.105406	0.976408	-0.479189	-0.498593	-0.124659	-0.396064	0.157993	-0.0702967	-0.166195	-0.140055	-0.234223	0.696173	2.07836	-0.128309	-0.142947	-0.0937567	0.778124	2.12992
0.1	0.182429	-0.0330809	0.0876766	0.0611056	1.1437	-0.193432	0.165012	0.0659492	-0.215273	0.346006	-0.0156804	-0.0936145	-0.0519461	-0.102983	-0.129715	-0.0922851	1.0138	-0.480356	-0.512927	-0.124629	-0.397927	0.159865	-0.0664783	-0.163965	-0.142482	-0.232393	0.699892	2.08213	-0.127719	-0.143726	-0.0901092	0.781649	2.13274
0.11	0.183672	-0.0326362	0.0920656	0.0722855	1.14576	-0.19269	0.150822	0.0662351	-0.220367	0.342429	-0.00701988	-0.0857279	-0.05204	-0.0718423	-0.130846	-0.080141	1.04655	-0.473518	-0.524297	-0.124598	-0.400401	0.160407	-0.0623857	-0.161087	-0.144951	-0.230965	0.703431	2.08567	-0.127227	-0.144454	-0.0872473	0.786231	2.13503
0.12	0.185056	-0.0313056	0.0957186	0.0832843	1.14784	-0.191935	0.136026	0.0658721	-0.224687	0.33799	0.00137006	-0.0775809	-0.0521339	-0.0419174	-0.13016	-0.0691644	1.07447	-0.460714	-0.532996	-0.124568	-0.403274	0.159758	-0.0581297	-0.157553	-0.147421	-0.230013	0.706745	2.08878	-0.126997	-0.145106	-0.0852696	0.7919	2.13667
0.13	0.186417	-0.029269	0.0986514	0.0941285	1.14992	-0.191164	0.120824	0.0650732	-0.228168	0.332689	0.00936619	-0.0694741	-0.0522278	-0.0131579	-0.127953	-0.0594506	1.09744	-0.444252	-0.539365	-0.124537	-0.406316	0.158119	-0.0538298	-0.153396	-0.149862	-0.229575	0.709821	2.09133	-0.127151	-0.145675	-0.0841853	0.798627	2.13755
0.14	0.187614	-0.0267261	0.100922	0.104844	1.15198	-0.190382	0.105392	0.0640525	-0.230828	0.326521	0.0168917	-0.0616048	-0.0523216	0.0145085	-0.124555	-0.0510161	1.11542	-0.426323	-0.543744	-0.124506	-0.40931	0.155729	-0.0495925	-0.148689	-0.152257	-0.229672	0.712686	2.09331	-0.127756	-0.146169	-0.0839236	0.806321	2.13758
0.15	0.188535	-0.0238733	0.102612	0.115453	1.154	-0.189593	0.089877	0.0629994	-0.23275	0.319496	0.0239244	-0.0540649	-0.0524155	0.0411549	-0.12029	-0.0438223	1.12843	-0.408668	-0.546441	-0.124476	-0.412064	0.152828	-0.0454974	-0.143546	-0.154597	-0.230309	0.715419	2.09487	-0.128821	-0.146601	-0.0843551	0.81483	2.13668
0.16	0.189107	-0.0208851	0.103812	0.125973	1.15595	-0.188807	0.0744029	0.062059	-0.23406	0.311664	0.0304963	-0.0468489	-0.0525094	0.0668377	-0.115454	-0.0377977	1.13658	-0.392385	-0.547692	-0.124445	-0.414435	0.14964	-0.041591	-0.138108	-0.156883	-0.231488	0.718149	2.09619	-0.130303	-0.146987	-0.0853199	0.823952	2.13483
0.17	0.189287	-0.0179031	0.104607	0.136417	1.15781	-0.188031	0.0590695	0.0613238	-0.234912	0.303123	0.0366855	-0.0398692	-0.0526033	0.0915861	-0.110293	-0.0328583	1.14	-0.377887	-0.547652	-0.124415	-0.416332	0.14635	-0.0378907	-0.13253	-0.159122	-0.233201	0.72105	2.09747	-0.132114	-0.147336	-0.0866572	0.833457	2.13203
0.18	0.189067	-0.0150329	0.105076	0.146794	1.15955	-0.187272	0.0439565	0.0608367	-0.235475	0.294016	0.0426012	-0.0329807	-0.0526972	0.115397	-0.105001	-0.0289216	1.13886	-0.36502	-0.546404	-0.124384	-0.417723	0.1431	-0.0343938	-0.12696	-0.161332	-0.235422	0.724322	2.09886	-0.134142	-0.147653	-0.0882282	0.843105	2.12837
0.19	0.188463	-0.0123471	0.105282	0.157108	1.16117	-0.186535	0.0291248	0.0606031	-0.235918	0.284519	0.0483647	-0.0260121	-0.0527911	0.138238	-0.0997271	-0.0259159	1.13335	-0.353265	-0.54398	-0.124353	-0.418628	0.139995	-0.0310875	-0.121527	-0.163534	-0.2381	0.728168	2.10039	-0.136268	-0.14793	-0.0899298	0.852667	2.12399
0.2	0.187511	-0.00989311	0.105272	0.167359	1.16263	-0.185825	0.0146171	0.0606079	-0.236389	0.274814	0.0540918	-0.0188001	-0.052885	0.160049	-0.0945855	-0.0237861	1.1236	-0.341979	-0.540398	-0.124323	-0.419102	0.137106	-0.0279573	-0.116329	-0.165757	-0.241156	0.732768	2.10198	-0.138376	-0.148152	-0.0916966	0.861939	2.11911
0.21	0.186259	-0.00770071	0.105082	0.177548	1.16394	-0.185144	0.000458235	0.0608311	-0.236998	0.265073	0.0598783	-0.0112219	-0.0529789	0.180753	-0.089663	-0.0224958	1.10978	-0.330602	-0.535691	-0.124292	-0.419227	0.134482	-0.0249903	-0.111428	-0.168034	-0.244479	0.73825	2.10348	-0.140365	-0.148299	-0.0934933	0.870752	2.11394
0.22	0.184754	-0.00578916	0.104731	0.187675	1.16509	-0.184493	-0.0133431	0.0612577	-0.237799	0.255436	0.0657933	-0.00321991	-0.0530729	0.200262	-0.0850273	-0.0220275	1.09199	-0.318792	-0.52993	-0.124261	-0.419092	0.132151	-0.0221754	-0.10685	-0.170396	-0.247943	0.744681	2.1047	-0.142154	-0.148347	-0.095302	0.878969	2.10873
0.23	0.183044	-0.00417197	0.104223	0.197742	1.16606	-0.18387	-0.026791	0.0618808	-0.238782	0.246009	0.0718805	0.00518668	-0.0531668	0.218482	-0.0807268	-0.0223808	1.07034	-0.306474	-0.523226	-0.12423	-0.41878	0.130132	-0.0195008	-0.102598	-0.172872	-0.251419	0.752058	2.10545	-0.143681	-0.148271	-0.0971081	0.886487	2.10367
0.24	0.18117	-0.0028572	0.103551	0.207751	1.16686	-0.183274	-0.0398986	0.0626988	-0.239875	0.236856	0.0781648	0.0139052	-0.0532608	0.235326	-0.0767877	-0.0235685	1.0449	-0.293804	-0.515711	-0.1242	-0.41836	0.128426	-0.0169525	-0.0986496	-0.17548	-0.254799	0.760319	2.1056	-0.1449	-0.148055	-0.0988904	0.893224	2.09895
0.25	0.179165	-0.00184384	0.1027	0.217707	1.16748	-0.182702	-0.0526856	0.0637105	-0.240957	0.228008	0.0846613	0.0227871	-0.0533548	0.250716	-0.0732116	-0.0256112	1.01577	-0.281084	-0.507496	-0.124169	-0.41788	0.127024	-0.0145145	-0.094975	-0.178225	-0.258005	0.769356	2.10508	-0.145781	-0.147688	-0.100617	0.899125	2.09467
0.26	0.177057	-0.00112442	0.101654	0.227616	1.16793	-0.182154	-0.0651773	0.0649092	-0.241888	0.219473	0.0913827	0.0316547	-0.0534487	0.264586	-0.0699733	-0.0285348	0.983049	-0.268644	-0.498631	-0.124138	-0.417372	0.125904	-0.0121718	-0.0915395	-0.181097	-0.261004	0.779041	2.10389	-0.146304	-0.147171	-0.10225	0.904148	2.09089
0.27	0.174869	-0.000678991	0.100405	0.237488	1.16819	-0.181627	-0.0774078	0.0662841	-0.242538	0.21124	0.0983414	0.0403336	-0.0535427	0.276888	-0.0670259	-0.0323669	0.946876	-0.256738	-0.489049	-0.124108	-0.416854	0.125038	-0.00991606	-0.0883112	-0.18407	-0.263804	0.789234	2.10206	-0.146462	-0.146514	-0.103746	0.908274	2.08767
0.28	0.172622	-0.000486387	0.0989635	0.247331	1.16828	-0.181123	-0.0894248	0.0678206	-0.242809	0.203282	0.105547	0.0486816	-0.0536367	0.287592	-0.064307	-0.0371393	0.907447	-0.245475	-0.478538	-0.124077	-0.416342	0.124399	-0.00775206	-0.0852651	-0.187103	-0.266447	0.799806	2.09969	-0.146259	-0.145737	-0.105075	0.911501	2.08501
0.29	0.170346	-0.000523878	0.0973616	0.257157	1.16819	-0.180644	-0.101293	0.069508	-0.242658	0.195565	0.113001	0.0566107	-0.0537307	0.296686	-0.0617504	-0.04289	0.865026	-0.23479	-0.466734	-0.124046	-0.415851	0.123966	-0.00570139	-0.0823842	-0.19015	-0.268989	0.810641	2.09684	-0.145713	-0.14487	-0.106213	0.913847	2.0829
0.3	0.168082	-0.000770694	0.095657	0.266977	1.16792	-0.180193	-0.113096	0.0713448	-0.242098	0.188044	0.120685	0.0640974	-0.0538248	0.304177	-0.0592954	-0.0496677	0.819953	-0.22447	-0.453137	-0.124016	-0.415401	0.123731	-0.00380313	-0.07966	-0.193159	-0.271489	0.821639	2.09362	-0.144855	-0.143944	-0.107156	0.91535	2.08135
0.31	0.165886	-0.00121407	0.0939258	0.276804	1.16749	-0.179775	-0.124935	0.0733405	-0.241195	0.18067	0.128562	0.0711803	-0.0539188	0.310092	-0.0568918	-0.0575328	0.772645	-0.214205	-0.437171	-0.123985	-0.415024	0.1237	-0.00210897	-0.0770916	-0.196083	-0.273989	0.83271	2.09015	-0.143725	-0.142992	-0.107907	0.91606	2.0803
0.32	0.163821	-0.00184716	0.0922538	0.28665	1.16689	-0.179395	-0.136921	0.0755134	-0.24005	0.1734	0.136574	0.0779456	-0.0540128	0.314473	-0.0545001	-0.0665535	0.723585	-0.203669	-0.418256	-0.123955	-0.414757	0.123888	-0.000672601	-0.0746833	-0.198883	-0.276505	0.843773	2.08656	-0.142371	-0.142048	-0.108476	0.91604	2.07969
